<?xml version="1.0" encoding="UTF-8" standalone="no"?>
<!-- Created with Inkscape (http://www.inkscape.org/) -->

<svg
   xmlns:dc="http://purl.org/dc/elements/1.1/"
   xmlns:cc="http://creativecommons.org/ns#"
   xmlns:rdf="http://www.w3.org/1999/02/22-rdf-syntax-ns#"
   xmlns:svg="http://www.w3.org/2000/svg"
   xmlns="http://www.w3.org/2000/svg"
   version="1.1"
   width="787.88867"
   height="130.27025"
   id="svg3234">
  <defs
     id="defs3236">
    <clipPath
       id="clipPath3113">
      <path
         d="m 265.646,440.022 177.74,0 0,29.389 -177.74,0 0,-29.389 z"
         id="path3115" />
    </clipPath>
  </defs>
  <metadata
     id="metadata3239">
    <rdf:RDF>
      <cc:Work
         rdf:about="">
        <dc:format>image/svg+xml</dc:format>
        <dc:type
           rdf:resource="http://purl.org/dc/dcmitype/StillImage" />
        <dc:title></dc:title>
      </cc:Work>
    </rdf:RDF>
  </metadata>
  <g
     transform="translate(-8.9127802,-296.8521)"
     id="layer1">
    <g
       transform="matrix(4.4328275,0,0,-4.4328275,-1168.6513,2377.6661)"
       id="g3109">
      <g
         clip-path="url(#clipPath3113)"
         id="g3111">
        <g
           transform="translate(345.7675,454.2732)"
           id="g3117">
          <path
             d="m 0,0 0,0.067 c 0,3.786 -2.827,6.889 -6.543,6.889 -3.818,0 -6.445,-3.103 -6.445,-6.817 l 0,-0.072 c 0,-3.782 2.798,-6.853 6.512,-6.853 C -2.659,-6.786 0,-3.715 0,0 m -15.682,0 0,0.067 c 0,4.978 3.886,9.205 9.206,9.205 5.285,0 9.17,-4.159 9.17,-9.133 l 0,-0.072 c 0,-4.978 -3.918,-9.204 -9.237,-9.204 -5.286,0 -9.139,4.16 -9.139,9.137"
             id="path3119"
             style="fill:#231f20;fill-opacity:1;fill-rule:nonzero;stroke:none" />
        </g>
        <g
           transform="translate(365.5075,455.1931)"
           id="g3121">
          <path
             d="m 0,0 0,0.069 c 0,3.614 -3.138,5.966 -6.476,5.966 -3.342,0 -6.105,-2.317 -6.105,-5.933 l 0,-0.068 c 0,-3.545 2.835,-5.998 6.105,-5.998 C -3.138,-5.964 0,-3.547 0,0 m -14.457,-12.717 1.194,2.047 c 2.012,-1.468 4.262,-2.253 6.787,-2.253 3.884,0 6.406,2.15 6.406,6.276 l 0,2.078 c -1.533,-2.045 -3.681,-3.717 -6.916,-3.717 -4.23,0 -8.289,3.173 -8.289,8.252 l 0,0.068 c 0,5.148 4.093,8.317 8.289,8.317 3.306,0 5.453,-1.634 6.885,-3.542 l 0,3.169 2.624,0 0,-14.558 c 0,-2.727 -0.82,-4.807 -2.25,-6.238 -1.568,-1.568 -3.919,-2.352 -6.715,-2.352 -2.931,0 -5.66,0.816 -8.015,2.453"
             id="path3123"
             style="fill:#231f20;fill-opacity:1;fill-rule:nonzero;stroke:none" />
        </g>
        <path
           d="m 371.692,463.172 2.626,0 0,-17.626 -2.626,0 0,17.626 z m -0.17,6.238 3,0 0,-2.897 -3,0 0,2.897 z"
           id="path3125"
           style="fill:#231f20;fill-opacity:1;fill-rule:nonzero;stroke:none" />
        <g
           transform="translate(329.5493,448.0329)"
           id="g3127">
          <path
             d="m 0,0 -11.448,0 0,21.376 -2.69,0 0,-23.864 16.3,0 C 1.323,-1.769 0.597,-0.931 0,0"
             id="path3129"
             style="fill:#231f20;fill-opacity:1;fill-rule:nonzero;stroke:none" />
        </g>
        <g
           transform="translate(383.569,447.6241)"
           id="g3131">
          <path
             d="m 0,0 c -1.774,0 -2.966,0.785 -2.966,2.933 l 0,10.296 5.222,0 c 0.538,0.865 1.185,1.644 1.92,2.318 l -7.142,0 0,6.239 -2.622,0 0,-19.193 c 0,-3.583 2.146,-4.979 4.975,-4.979 1.481,0 2.731,0.374 3.892,1.208 C 2.853,-0.684 2.465,-0.15 2.125,0.418 1.436,0.137 0.702,0 0,0"
             id="path3133"
             style="fill:#231f20;fill-opacity:1;fill-rule:nonzero;stroke:none" />
        </g>
        <g
           transform="translate(400.4798,455.3297)"
           id="g3135">
          <path
             d="M 0,0 C -0.276,3.206 -2.115,5.998 -5.629,5.998 -8.696,5.998 -11.015,3.444 -11.355,0 L 0,0 z m -14.014,-1.022 0,0.068 c 0,5.079 3.58,9.169 8.453,9.169 5.215,0 8.218,-4.158 8.218,-9.306 0,-0.341 0,-0.546 -0.036,-0.851 l -13.976,0 c 0.378,-3.821 3.07,-5.968 6.206,-5.968 2.419,0 4.125,0.988 5.556,2.49 l 1.637,-1.467 c -1.773,-1.977 -3.92,-3.306 -7.261,-3.306 -4.843,0 -8.797,3.714 -8.797,9.171"
             id="path3137"
             style="fill:#231f20;fill-opacity:1;fill-rule:nonzero;stroke:none" />
        </g>
        <g
           transform="translate(404.9548,454.2732)"
           id="g3139">
          <path
             d="m 0,0 0,0.067 c 0,4.978 3.891,9.205 9.035,9.205 3.344,0 5.424,-1.397 7.059,-3.135 L 14.355,4.296 c -1.396,1.466 -2.968,2.66 -5.354,2.66 -3.579,0 -6.305,-3.034 -6.305,-6.817 l 0,-0.072 c 0,-3.816 2.795,-6.853 6.478,-6.853 2.248,0 3.987,1.126 5.384,2.626 L 16.23,-5.727 C 14.459,-7.704 12.344,-9.137 9.035,-9.137 3.891,-9.137 0,-4.942 0,0"
             id="path3141"
             style="fill:#231f20;fill-opacity:1;fill-rule:nonzero;stroke:none" />
        </g>
        <g
           transform="translate(423.3461,469.4094)"
           id="g3143">
          <path
             d="m 0,0 2.626,0 0,-9.308 c 1.159,1.911 2.999,3.443 6.03,3.443 4.265,0 6.755,-2.862 6.755,-7.057 l 0,-10.943 -2.626,0 0,10.295 c 0,3.275 -1.776,5.32 -4.875,5.32 -3.036,0 -5.284,-2.216 -5.284,-5.521 l 0,-10.094 -2.626,0 L 0,0 z"
             id="path3145"
             style="fill:#231f20;fill-opacity:1;fill-rule:nonzero;stroke:none" />
        </g>
        <g
           transform="translate(441.7248,461.4492)"
           id="g3147">
          <path
             d="M 0,0 C 0.231,0 0.364,0.122 0.364,0.291 0.364,0.484 0.231,0.583 0,0.583 l -0.433,0 L -0.433,0 0,0 z m -0.775,0.887 0.805,0 c 0.394,0 0.685,-0.192 0.685,-0.565 0,-0.291 -0.173,-0.472 -0.414,-0.544 l 0.474,-0.673 -0.411,0 -0.425,0.612 -0.372,0 0,-0.612 -0.342,0 0,1.782 z m 2.235,-0.927 0,0.012 c 0,0.853 -0.664,1.559 -1.549,1.559 -0.877,0 -1.554,-0.715 -1.554,-1.571 l 0,-0.009 c 0,-0.859 0.665,-1.563 1.554,-1.563 0.876,0 1.549,0.717 1.549,1.572 m -3.304,-0.009 0,0.009 c 0,0.956 0.776,1.762 1.755,1.762 0.985,0 1.75,-0.797 1.75,-1.75 l 0,-0.012 c 0,-0.959 -0.775,-1.763 -1.75,-1.763 -0.99,0 -1.755,0.794 -1.755,1.754"
             id="path3149"
             style="fill:#231f20;fill-opacity:1;fill-rule:nonzero;stroke:none" />
        </g>
        <g
           transform="translate(297.0663,453.4212)"
           id="g3151">
          <path
             d="M 0,0 C 1.458,-0.656 3.424,-0.681 4.823,-0.1 6.322,0.474 6.907,1.255 5.935,1.679 4.85,2.109 1.572,2.281 -0.78,1.988 -2.578,1.634 -1.847,0.701 0,0"
             id="path3153"
             style="fill:#231f20;fill-opacity:1;fill-rule:nonzero;stroke:none" />
        </g>
        <g
           transform="translate(293.6069,444.1982)"
           id="g3155">
          <path
             d="M 0,0 C 1.638,-2.014 4.152,-3.929 5.435,-4.06 6.417,-3.898 5.895,-2.274 4.64,-0.8 3.512,0.542 1.609,1.745 0.194,2.132 -1.25,2.603 -1.488,1.832 0,0"
             id="path3157"
             style="fill:#231f20;fill-opacity:1;fill-rule:nonzero;stroke:none" />
        </g>
        <g
           transform="translate(293.5934,463.2918)"
           id="g3159">
          <path
             d="M 0,0 C 2.889,1.528 5.008,3.575 4.73,4.575 4.456,5.577 3.214,5.982 1.956,5.479 0.699,4.976 -1.419,2.929 -2.78,0.907 -4.136,-1.119 -2.892,-1.525 0,0"
             id="path3161"
             style="fill:#231f20;fill-opacity:1;fill-rule:nonzero;stroke:none" />
        </g>
        <g
           transform="translate(282.2263,467.3354)"
           id="g3163">
          <path
             d="M 0,0 C 0.126,0.179 0.396,0.622 0.281,1.074 0.139,1.642 -0.634,1.938 -1.285,2.021 -2.396,2.165 -3.298,1.991 -4.078,1.824 -6.135,1.382 -7.745,0.596 -8.868,-0.137 c -0.815,-0.535 -1.714,-1.241 -2.591,-2.104 -2.938,-2.905 -5.834,-7.732 -4.964,-13.37 0.501,-3.37 2.27,-5.853 3.786,-7.697 1.989,-2.305 5.149,-4.426 7.934,-3.933 1.284,0.251 2.275,1.306 2.744,2.167 1.794,3.321 -1.16,7.637 -2.016,9.35 -1.106,2.088 -1.617,4.213 -0.664,7.471 C -3.748,-5.213 -0.952,-1.359 0,0"
             id="path3165"
             style="fill:#231f20;fill-opacity:1;fill-rule:nonzero;stroke:none" />
        </g>
        <g
           transform="translate(287.618,452.4549)"
           id="g3167">
          <path
             d="m 0,0 c -1.523,0 -2.518,0.528 -2.518,1.539 0,0.841 1.541,2.836 3.065,2.836 1.124,0 2.229,-1.337 2.229,-2.137 C 2.776,1.215 1.671,0 0,0 M 0.71,-2.411 C 0.243,-2.97 -0.508,-3.39 -1.106,-3.39 c -0.804,0 -1.403,0.448 -1.606,1.095 -0.054,0.16 -0.071,0.333 -0.082,0.516 -0.008,0.194 0.058,0.109 0.633,-0.104 0.392,-0.148 0.884,-0.285 1.393,-0.285 0.204,0 0.402,0.023 0.59,0.055 0.328,0.062 1.354,0.255 0.888,-0.298 M -4.116,1.621 C -4.327,0.755 -4.497,1.132 -4.595,1.378 c -0.15,0.379 -0.207,0.78 -0.207,1.137 0,1.269 0.967,2.345 2.787,2.345 0.418,0 0.579,-0.13 0.147,-0.334 C -2.013,4.457 -2.176,4.351 -2.314,4.266 -3.232,3.693 -3.84,2.744 -4.116,1.621 M 6.185,3.237 C 6.03,5.576 2.719,7.228 -1.46,7.117 -4.759,7.028 -8.466,5.024 -8.463,2.515 c 0.004,-2.751 2.13,-3.863 2.959,-4.191 0.201,-0.082 0.272,-0.056 0.397,-0.424 0.241,-0.7 0.92,-2.407 3.145,-2.402 3.008,0.007 8.377,4.296 8.147,7.739"
             id="path3169"
             style="fill:#231f20;fill-opacity:1;fill-rule:nonzero;stroke:none" />
        </g>
      </g>
    </g>
  </g>
</svg>
