<?xml version="1.0" encoding="utf-8"?><svg version="1.1" id="Layer_1" xmlns="http://www.w3.org/2000/svg" xmlns:xlink="http://www.w3.org/1999/xlink" x="0px" y="0px" viewBox="0 0 122.9 122.9" style="enable-background:new 0 0 122.9 122.9" xml:space="preserve"><style type="text/css">.st0{fill-rule:evenodd;clip-rule:evenodd;fill:url(#SVGID_1_);} .st1{fill-rule:evenodd;clip-rule:evenodd;fill:url(#SVGID_2_);} .st2{fill-rule:evenodd;clip-rule:evenodd;fill:url(#SVGID_3_);} .st3{fill-rule:evenodd;clip-rule:evenodd;fill:url(#SVGID_4_);} .st4{fill-rule:evenodd;clip-rule:evenodd;fill:url(#SVGID_5_);} .st5{fill-rule:evenodd;clip-rule:evenodd;fill:url(#SVGID_6_);} .st6{fill-rule:evenodd;clip-rule:evenodd;fill:url(#SVGID_7_);} .st7{fill-rule:evenodd;clip-rule:evenodd;fill:url(#SVGID_8_);} .st8{fill-rule:evenodd;clip-rule:evenodd;fill:#34302F;}</style><g><radialGradient id="SVGID_1_" cx="77.4325" cy="11.4415" r="88.358" gradientUnits="userSpaceOnUse"><stop offset="0" style="stop-color:#FAB8A0"/><stop offset="0.43" style="stop-color:#EB2227"/><stop offset="1" style="stop-color:#991C1F"/></radialGradient><path class="st0" d="M48.8,70.4L48.8,70.4L48.8,70.4c-0.5-0.2-0.9-0.5-1.4-0.7v0h0c-0.4-0.2-0.7-0.4-1.1-0.6v0h0 c-1-0.5-2.1-1.1-3.2-1.7v0h0c-1.8-1-3.8-2.1-5.9-3.3v0h0c-0.2-0.1-0.5-0.3-0.7-0.4v0h0c-1.1-0.7-2.3-1.3-3.5-2v0h0 c-0.4-0.2-0.7-0.4-1.1-0.6v0h0c-0.4-0.2-0.8-0.5-1.2-0.7v0h0c-0.2-0.1-0.5-0.3-0.7-0.4v0l0,0c-0.3-0.2-0.6-0.4-0.9-0.5v0h0 l-0.4-0.3v0h0c-0.4-0.2-0.8-0.5-1.2-0.7l0,0h0c-0.4-0.2-0.7-0.5-1.1-0.7v0h0c-1-0.7-2-1.3-2.9-2v0h0c-0.4-0.2-0.7-0.5-1.1-0.7v0h0 c-1-0.7-2-1.4-2.9-2.1l0,0c-0.3-0.2-0.5-0.4-0.7-0.6v0h0c-0.3-0.2-0.6-0.5-0.9-0.7v0h0c-0.1-0.1-0.2-0.2-0.3-0.3v0h0 c-0.3-0.2-0.5-0.4-0.7-0.6v0h0c-0.4-0.3-0.7-0.6-1.1-1v0h0c-0.2-0.2-0.4-0.4-0.6-0.5c0,0,0,0-0.1-0.1v0h0c-0.1-0.1-0.4-0.3-0.7-0.6 v0h0c-0.1-0.1-0.1-0.1-0.2-0.2v0h0L14.1,48v0l0,0c-0.4-0.4-0.8-0.8-1.2-1.4v0h0c-0.1-0.2-0.2-0.3-0.4-0.5v0h0 c-0.2-0.2-0.4-0.5-0.5-0.7v0h0l-0.1-0.2v0h0L11.8,45v0h0c-0.1-0.1-0.2-0.3-0.3-0.4v0h0c-0.1-0.1-0.1-0.2-0.2-0.3v0h0 c-0.1-0.1-0.1-0.2-0.2-0.3v0h0c-0.1-0.2-0.2-0.4-0.3-0.6v0h0l-0.1-0.1v0h0l-0.1-0.1v0h0l-0.1-0.1v0h0l0-0.1v0h0 c-0.1-0.2-0.2-0.4-0.3-0.6v0h0l0-0.1v0h0c-0.1-0.1-0.1-0.2-0.2-0.4v0l0,0c-0.1-0.1-0.1-0.3-0.2-0.4v0h0c-0.1-0.1-0.1-0.3-0.2-0.4v0 h0c0,0,0-0.1-0.1-0.1v0h0l0-0.2v0h0c-0.1-0.2-0.1-0.3-0.2-0.5v0h0l0-0.2v0h0c0-0.1,0-0.1,0-0.2v0h0c0-0.1,0-0.1-0.1-0.2v0h0 c0-0.1,0-0.1-0.1-0.2v0h0c0-0.1,0-0.2-0.1-0.2v0h0c0-0.1,0-0.1,0-0.2v0h0c0-0.1,0-0.2,0-0.2v0h0c0-0.1,0-0.2,0-0.3v0h0 c0-0.1,0-0.2,0-0.3v0h0c0-0.1,0-0.3-0.1-0.4v-0.1h0c0-0.1,0-0.3,0-0.4v-0.1h0c0-0.1,0-0.2,0-0.3l0,0c0-0.2,0-0.4,0-0.5V36h0 c0-0.2,0-0.5,0-0.7h0v-0.2c0-0.3,0-0.5,0-0.8h0v0c0-0.2,0-0.3,0.1-0.5h0v0c0-0.1,0-0.2,0-0.4h0v0c0.1-0.5,0.2-1.1,0.3-1.6h0v0 c0-0.1,0-0.1,0.1-0.2h0v0c0-0.1,0-0.1,0.1-0.2h0v0c0.1-0.3,0.1-0.5,0.2-0.7h0v0c0.1-0.3,0.2-0.6,0.3-1h0v0c0.2-0.7,0.5-1.3,0.8-2h0 v0c0.4-0.8,0.8-1.6,1.2-2.4h0v0c0.1-0.1,0.1-0.2,0.2-0.4h0v0c0.2-0.3,0.3-0.5,0.5-0.8h0v0c0.4-0.6,0.7-1.2,1.1-1.7h0v0 c0.6-0.8,1.2-1.6,1.7-2.3h0v0c0.4-0.4,0.7-0.9,1-1.2h0v0c1.3-1.5,2.3-2.5,2.3-2.5s1.4,1.7,3.7,4.7v0h0c0.3,0.4,0.6,0.8,1,1.3v0h0 c1.2,1.6,2.5,3.4,4,5.5v0l0,0c0.9,1.2,1.7,2.5,2.7,3.9v0h0c0.3,0.4,0.6,0.9,0.9,1.3v0l0,0l0.1,0.2v0h0c0.6,0.8,1.1,1.7,1.7,2.6v0h0 l0.1,0.2c0.3,0.5,0.6,0.9,0.9,1.4v0h0c0.4,0.5,0.7,1.1,1.1,1.7v0h0c0.4,0.6,0.7,1.2,1.1,1.8v0h0c0.7,1.1,1.5,2.3,2.2,3.5v0h0 c0.2,0.4,0.5,0.8,0.7,1.2v0h0l0.2,0.3v0h0c0.6,0.9,1.1,1.8,1.7,2.8v0h0c0.4,0.6,0.7,1.3,1.1,1.9v0h0l0.2,0.4v0h0 c0.4,0.6,0.7,1.2,1.1,1.9v0h0c0.2,0.3,0.3,0.6,0.5,0.9v0h0c0.4,0.6,0.7,1.3,1.1,1.9v0h0l0.3,0.6v0h0c0.1,0.2,0.2,0.4,0.3,0.6v0h0 l0.3,0.6v0h0c0.1,0.2,0.2,0.5,0.4,0.7v0h0c0.1,0.3,0.3,0.5,0.4,0.8v0h0c0.2,0.3,0.3,0.6,0.5,0.9v0h0c0.2,0.4,0.4,0.7,0.6,1.1v0h0 c0.3,0.6,0.6,1.2,0.9,1.8v0h0c0.6,1.2,1.3,2.5,1.9,3.7v0h0c0.3,0.5,0.5,1.1,0.8,1.7v0h0c0.3,0.7,0.6,1.3,1,2v0h0 c0.1,0.3,0.2,0.5,0.4,0.8v0h0c0.1,0.3,0.3,0.6,0.4,0.9l0,0v0h0c0,0.1,0,0.2,0,0.2h0v0c0,0.1-0.1,0.2-0.1,0.2c0,0-0.1,0.1-0.1,0.1h0 v0c-0.2,0.1-0.3,0-0.4,0C51.6,71.8,50.4,71.2,48.8,70.4z"/><radialGradient id="SVGID_2_" cx="77.4624" cy="11.6599" r="88.1402" gradientUnits="userSpaceOnUse"><stop offset="0" style="stop-color:#FAB8A0"/><stop offset="0.43" style="stop-color:#EB2227"/><stop offset="1" style="stop-color:#991C1F"/></radialGradient><path class="st1" d="M26.6,92.4L26.6,92.4l-0.3,0c-0.2,0-0.4,0-0.6,0v0h-0.1c-0.1,0-0.3,0-0.4,0v0h0c-0.1,0-0.2,0-0.3,0v0h-0.1 c-0.1,0-0.1,0-0.2,0v0h-0.1c-0.1,0-0.2,0-0.3-0.1v0h0c-0.1,0-0.3-0.1-0.4-0.1v0h0c-0.1,0-0.1,0-0.2-0.1v0h0c-0.1,0-0.1,0-0.2,0v0h0 c-0.1,0-0.2-0.1-0.3-0.1v0h0l-0.2-0.1v0h0l-0.2-0.1v0h0c-0.1,0-0.2-0.1-0.3-0.1v0h0l-0.1-0.1v0h0l-0.1,0v0h0l-0.1-0.1v0h0l-0.1,0v0 h0c-0.1,0-0.2-0.1-0.2-0.1v0h0c-0.4-0.2-0.8-0.4-1.2-0.6v0h0l-0.1-0.1c-0.1-0.1-0.2-0.1-0.3-0.2v0h0c-0.1-0.1-0.2-0.1-0.3-0.2v0h0 l-0.1-0.1v0h0l-0.1-0.1v0h0L19.4,90v0h0c-0.2-0.1-0.3-0.2-0.5-0.3v0h0c-0.1,0-0.1-0.1-0.2-0.1v0h0l-0.1-0.1v0h0 c-0.1-0.1-0.1-0.1-0.2-0.2v0h0c-0.1-0.1-0.1-0.1-0.2-0.2v0h0C18.1,89,18,89,17.9,88.9v0h0c-0.1-0.1-0.2-0.1-0.3-0.2v0h0l-0.1,0v0h0 c-0.1-0.1-0.2-0.2-0.3-0.3v0h0c-0.1-0.1-0.3-0.2-0.4-0.4v0h0l-0.1,0v0h0c-0.5-0.4-0.9-0.9-1.4-1.4v0h0l0,0v0h0l0-0.1v0h0 c-0.3-0.3-0.5-0.6-0.7-0.9v0h0c-0.1-0.1-0.2-0.2-0.3-0.3v0h0c-0.1-0.1-0.1-0.2-0.2-0.3v0h0c-0.1-0.2-0.2-0.3-0.4-0.5v0h0 c-0.1-0.1-0.1-0.1-0.2-0.2v0h0l-0.2-0.2v0h0c-0.1-0.1-0.1-0.1-0.2-0.2v0h0c-0.1-0.2-0.3-0.4-0.4-0.5v0h0l-0.1-0.2v0h0L12.6,83v0h0 l-0.1-0.2v0h0l-0.1-0.2v0h0l-0.1-0.2v0h0c-0.1-0.2-0.3-0.5-0.4-0.7v0h0l-0.2-0.3v0h0c-0.1-0.1-0.1-0.2-0.2-0.3v0h0 c-0.1-0.1-0.2-0.3-0.2-0.4L49,79.5v0c0,0,0.4,0,0.5,0.3c0,0,0.1,0.2-0.2,0.5h0c-1.1,0.8-2.7,1.9-4.7,3.3h0v0 c-0.7,0.5-1.5,1-2.2,1.5h0v0c-1.1,0.8-2.3,1.5-3.5,2.2h0v0c-0.8,0.5-1.7,1-2.5,1.5h0v0l-0.4,0.2h0v0c-0.3,0.2-0.6,0.4-1,0.5h0v0 c-0.2,0.1-0.5,0.3-0.7,0.4h0v0c-0.6,0.3-1.2,0.6-1.7,0.9h0v0l-0.1,0h0v0c-0.2,0.1-0.4,0.2-0.6,0.3h0v0c-0.2,0.1-0.4,0.2-0.6,0.3h0 v0c-0.1,0-0.2,0.1-0.3,0.1h0v0c-0.1,0-0.2,0.1-0.3,0.1h0v0c-0.2,0.1-0.3,0.1-0.5,0.2h0v0c0,0-0.1,0-0.1,0h0v0l-0.2,0h0v0 c-0.1,0-0.3,0.1-0.4,0.1c-0.1,0-0.1,0-0.2,0h0v0c-0.1,0-0.1,0-0.2,0h-0.1v0c-0.1,0-0.1,0-0.2,0h-0.1v0c-0.1,0-0.2,0-0.2,0h0v0 c-0.1,0-0.3,0-0.4,0h-0.1v0c-0.2,0-0.4,0-0.6,0h-0.3v0C26.8,92.4,26.7,92.4,26.6,92.4z"/><radialGradient id="SVGID_3_" cx="77.461" cy="11.2214" r="88.5212" gradientUnits="userSpaceOnUse"><stop offset="0" style="stop-color:#FAB8A0"/><stop offset="0.43" style="stop-color:#EB2227"/><stop offset="1" style="stop-color:#991C1F"/></radialGradient><path class="st2" d="M18.4,76.4L18.4,76.4c-0.8-0.1-1.7-0.4-2.6-0.6v0h0c-0.3-0.1-0.5-0.2-0.8-0.3v0h0c-0.3-0.1-0.5-0.2-0.8-0.3 c0,0-0.2-0.1-0.6-0.2v0h0c-0.1-0.1-0.3-0.1-0.5-0.2v0h0c-0.5-0.2-1.1-0.5-1.8-1v0h0c-0.1-0.1-0.2-0.1-0.3-0.2v0h0 c-0.2-0.1-0.4-0.2-0.6-0.4v0h0l-0.2-0.1v0h0L10.1,73v0h0l-0.2-0.1v0h0c-0.4-0.3-0.8-0.6-1.2-0.9v0l0,0c-0.1-0.1-0.2-0.2-0.3-0.3v0 h0c-0.1-0.1-0.2-0.2-0.3-0.3v0h0c-0.1-0.1-0.2-0.2-0.4-0.3v0h0l-0.1,0v0h0c-0.2-0.2-0.5-0.5-0.7-0.7l-0.1-0.1v0h0l-0.1-0.1v0h0 l-0.1-0.1v0h0l-0.1-0.1v0h0c-0.4-0.4-0.7-0.8-1.1-1.2v0h0l0,0v0h0c-0.1-0.1-0.1-0.2-0.2-0.3v0h0l0,0v0h0c-0.1-0.1-0.1-0.2-0.2-0.3 v0h0c-0.1-0.1-0.1-0.2-0.2-0.3v0h0c-0.1-0.1-0.1-0.1-0.2-0.2v0h0l-0.1-0.1v0h0l0-0.1v0h0l-0.1-0.1v0h0c-0.1-0.1-0.1-0.1-0.2-0.2v0 h0l-0.1-0.2v0h0c-0.1-0.2-0.2-0.3-0.3-0.5v0h0c0-0.1-0.1-0.1-0.1-0.2v0h0c-0.1-0.1-0.1-0.2-0.2-0.2v0h0c0-0.1-0.1-0.1-0.1-0.2v0h0 l-0.1-0.1v0h0l-0.1-0.2v0h0c-0.2-0.3-0.3-0.6-0.5-0.9v0h0l-0.1-0.1v0h0l0-0.1v0h0l0-0.1v0h0l0-0.1v0h0l0-0.1v0h0l0-0.1v0h0l0-0.1v0 h0c0-0.1-0.1-0.1-0.1-0.2l0,0c0,0-0.3-0.6-0.7-1.6v0h0C1.4,62,1.3,61.5,1.1,61v0h0c0-0.1-0.1-0.2-0.1-0.4v0h0 c-0.1-0.4-0.2-0.8-0.3-1.3v0h0c-0.1-0.3-0.1-0.5-0.2-0.8v0h0c-0.1-0.3-0.1-0.6-0.2-1v0h0c0-0.1,0-0.2,0-0.4v0h0 c0-0.2,0-0.3-0.1-0.5v0h0c0-0.2,0-0.4-0.1-0.6V56h0c0-0.3,0-0.7,0-1.1V54c0-0.3,0-0.7,0-1h0v-0.2c0-0.2,0-0.4,0.1-0.6h0v0 c0-0.1,0-0.3,0-0.4h0v-0.1c0-0.1,0-0.2,0-0.3h0v-0.1c0-0.3,0.1-0.6,0.2-1h0v0c0-0.1,0-0.2,0-0.3h0v0c0-0.1,0-0.2,0-0.2h0v0 c0.1-0.3,0.1-0.6,0.2-0.9h0v0c0-0.1,0-0.1,0.1-0.2h0v0l0-0.2h0v0l0-0.2h0v0l0-0.1h0v0L1.1,48h0v0l0-0.2h0v0c0-0.1,0-0.1,0.1-0.2 c0,0,8.5,4.5,19,10.5v0h0c5.8,3.3,12.3,7,18.2,10.6v0h0c0.7,0.4,1.5,0.9,2.2,1.3v0h0c0.6,0.4,1.2,0.8,1.8,1.1v0h0 c0.4,0.3,0.9,0.5,1.3,0.8v0h0c0.5,0.3,1.1,0.7,1.6,1v0h0c1.6,1,3.1,2,4.5,3c0,0,0.2,0.1,0.2,0.3v0c0,0.1,0,0.1-0.1,0.2 c0,0-0.1,0.2-0.3,0.2h0v0c0,0-0.1,0-0.1,0c-5.9,0-27.7,0.1-28.3,0C21.4,76.8,20.1,76.7,18.4,76.4z"/><radialGradient id="SVGID_4_" cx="77.4687" cy="11.3173" r="88.3839" gradientUnits="userSpaceOnUse"><stop offset="0" style="stop-color:#FAB8A0"/><stop offset="0.43" style="stop-color:#EB2227"/><stop offset="1" style="stop-color:#991C1F"/></radialGradient><path class="st3" d="M53.8,63.5L53.8,63.5L53.8,63.5c-1-1.5-2-3.1-3.2-4.9v0h0c-0.2-0.3-0.4-0.6-0.5-0.9v0h0 c-0.4-0.6-0.7-1.2-1.1-1.8v0h0c-0.2-0.4-0.5-0.8-0.7-1.2v0h0c-0.3-0.5-0.6-1.1-1-1.6v0h0l-0.2-0.3v0h0c-0.6-1-1.2-2.1-1.9-3.2v0h0 L45,49.2v0h0c-0.2-0.4-0.5-0.8-0.7-1.2v0h0c-0.4-0.6-0.7-1.3-1.1-1.9v0h0c-0.2-0.4-0.5-0.9-0.7-1.3v0h0c-0.3-0.6-0.6-1.1-0.9-1.7v0 h0c-0.3-0.6-0.6-1.1-0.9-1.7v0l0,0l-0.1-0.1v0h0l-0.1-0.1v0h0l-0.1-0.1v0h0c-0.2-0.4-0.4-0.7-0.5-1.1v0h0L40,39.9v0h0l-0.1-0.1v0h0 l-0.1-0.1v0l0,0c-0.3-0.5-0.5-1-0.7-1.6v0h0c-0.8-1.8-1.6-3.5-2.3-5.2v0h0l-0.1-0.3v0h0c-0.3-0.9-0.7-1.7-1-2.5v0h0 c-0.1-0.4-0.3-0.8-0.4-1.2v0h0l-0.1-0.2v0h0l-0.1-0.2v0h0l-0.1-0.2v0h0C35,28,34.9,27.5,34.8,27v0h0c0-0.1-0.1-0.2-0.1-0.4v0h0 c-0.1-0.3-0.2-0.7-0.3-1v0h0c0-0.1,0-0.1,0-0.2v0h0c0-0.1,0-0.1,0-0.2v0h0l0-0.2v0h0c0-0.1,0-0.2-0.1-0.2c0,0-0.1-0.5-0.3-1.3l0,0 c0-0.1,0-0.2-0.1-0.3v0h0c0-0.2-0.1-0.4-0.1-0.6v0h0c0-0.1,0-0.2-0.1-0.3v0h0c0-0.2-0.1-0.5-0.1-0.7v0h0c0-0.3-0.1-0.6-0.1-1v0h0 c0-0.2,0-0.5-0.1-0.7v0h0c-0.1-1.1-0.1-2.3,0-3.6h0v0c0-0.1,0-0.3,0-0.4h0v0c0-0.1,0-0.2,0-0.3h0v0c0-0.1,0-0.2,0.1-0.3h0v0 c0-0.2,0.1-0.4,0.1-0.6h0v0c0-0.2,0.1-0.3,0.1-0.5h0v0c0-0.1,0-0.1,0-0.2h0v0c0-0.1,0-0.1,0.1-0.2h0v0c0-0.1,0.1-0.2,0.1-0.4h0v0 c0-0.1,0.1-0.2,0.1-0.4c0,0,0.2-0.7,0.6-1.7h0v0c0.2-0.5,0.5-1.1,0.9-1.8h0v0C35.8,9.1,35.9,9,36,8.8h0v0l0.1-0.2h0v0l0.1-0.2h0v0 l0.1-0.1h0v0l0.1-0.2h0v0c0.1-0.1,0.2-0.2,0.3-0.4h0v0c0.1-0.1,0.1-0.1,0.2-0.2h0v0c0.1-0.1,0.1-0.1,0.2-0.2h0v0 c0.2-0.2,0.3-0.4,0.5-0.6h0v0c0.1-0.1,0.2-0.2,0.3-0.4h0v0l0-0.1h0v0l0,0h0v0c0.5-0.5,1-1,1.5-1.5h0v0l0,0h0v0 c0.1-0.1,0.2-0.1,0.3-0.2h0v0l0.1,0h0v0C39.9,4.4,40,4.3,40,4.3h0v0c0.2-0.2,0.4-0.3,0.6-0.5h0v0l0.1-0.1h0v0L41,3.6h0v0l0.1-0.1h0 v0l0.2-0.1h0v0c0.1-0.1,0.3-0.2,0.4-0.3h0v0L41.9,3h0v0C42,3,42,2.9,42.1,2.9h0v0l0.1,0h0v0l0.1,0h0v0l0.1,0h0v0 c0.1,0,0.2-0.1,0.3-0.1h0v0l0.1-0.1h0v0l0.1-0.1h0v0c0.1-0.1,0.3-0.1,0.4-0.2h0v0l0.1,0h0v0l0.1,0h0v0l0.1,0h0v0l0.1,0h0v0L44,2h0 v0l0.1,0h0v0l0.1,0h0v0c0.1,0,0.2-0.1,0.3-0.1h0v0c0.1-0.1,0.3-0.1,0.4-0.2h0v0l0.1,0h0v0l0.1,0h0v0l0.1,0h0v0c0,0,0.1,0,0.1,0h0v0 l0.1,0h0.1v0l0.1,0h0v0c0,0,0.1,0,0.2,0h0v0c0.1,0,0.2,0,0.2-0.1l0,0c0,0,4.4-1,6.1-1.2c0,0,0.6,0.8,1.5,2.7v0h0 c0.1,0.3,0.2,0.5,0.4,0.9v0h0c0.1,0.3,0.3,0.7,0.4,1.1v0h0c0.1,0.4,0.3,0.8,0.4,1.2v0h0c0.1,0.4,0.2,0.7,0.4,1.1v0h0l0.1,0.2v0h0 c0.1,0.2,0.1,0.5,0.2,0.7v0h0C55.9,7.9,56,8.1,56,8.3v0h0c0.1,0.5,0.3,1,0.4,1.5v0h0c0.1,0.5,0.2,1,0.4,1.5v0h0 c0.1,0.3,0.1,0.6,0.2,0.9v0h0c0.1,0.2,0.1,0.5,0.2,0.7v0h0c0.1,0.2,0.1,0.5,0.2,0.7v0h0c0,0.2,0.1,0.3,0.1,0.5v0h0l0.1,0.3v0h0 l0.1,0.3v0l0,0c0,0.2,0.1,0.4,0.1,0.6v0h0c0.1,0.5,0.2,1,0.3,1.5v0h0l0.1,0.3v0h0c0.1,0.7,0.2,1.4,0.3,2.1v0h0 c0.1,0.8,0.2,1.6,0.3,2.4v0.1h0c0,0.1,0,0.3,0,0.4v0h0c0.1,0.6,0.1,1.3,0.2,1.9v0h0l0.1,0.5v0h0c0.1,0.6,0.1,1.2,0.2,1.8v0h0 c0,0.2,0,0.4,0.1,0.6v0.1h0c0,0.2,0,0.4,0,0.6v0h0c0,0.5,0.1,1,0.1,1.5v0h0c0,0.3,0,0.5,0.1,0.8v0.1h0c0,0.3,0,0.6,0,0.9v0h0 c0,0.3,0,0.7,0.1,1v0h0c0,0.4,0,0.8,0.1,1.1v0.1h0c0,1.1,0.1,2.2,0.1,3.3v0.3h0c0.1,2.6,0.1,5.4,0,8.3h0v0.1c0,0.7,0,1.3,0,2h0v0.2 c0,0.5,0,1-0.1,1.6h0v0c0,0.4,0,0.9-0.1,1.3h0v0.1c0,0.4,0,0.7,0,1.1h0V52c0,0.3,0,0.7,0,1h0v0.1c0,0.7-0.1,1.3-0.1,2h0v0l0,0.8h0 V56c0,0.3,0,0.5,0,0.8h0v0.1c0,0.3,0,0.5-0.1,0.8h0v0c0,0.5-0.1,1-0.1,1.6v0c0,0.2,0,0.5-0.1,0.7h0v0l0,0.7h0v0.1 c0,0.2,0,0.4,0,0.6h0v0.1c0,0.2,0,0.4-0.1,0.6h0v0l-0.1,0.6h0v0c-0.1,0.8-0.1,1.6-0.2,2.4h0v0.1c0,0.2,0,0.4,0,0.5h0v0.1l0,0.5h0 v0.1c0,0.2,0,0.4-0.1,0.5h0v0l0,0.5h0v0l-0.1,0.5h0v0c0,0.2,0,0.4-0.1,0.5l0,0c0,0,0,0.4-0.3,0.5c0,0-0.2,0.1-0.4-0.1 C56.7,67.9,55.4,66,53.8,63.5z"/><radialGradient id="SVGID_5_" cx="77.4653" cy="11.4432" r="88.7687" gradientUnits="userSpaceOnUse"><stop offset="0" style="stop-color:#FAB8A0"/><stop offset="0.43" style="stop-color:#EB2227"/><stop offset="1" style="stop-color:#991C1F"/></radialGradient><path class="st4" d="M64.6,67.9L64.6,67.9L64.6,67.9l-0.1-0.6v0h0l-0.1-0.5v0h0c0-0.2,0-0.3,0-0.5v-0.1h0c0-0.2,0-0.3,0-0.5v-0.1h0 l0-0.5v0h0l-0.1-0.6v0h0c-0.1-0.6-0.1-1.3-0.2-1.9v0h0l-0.1-0.6v-0.1h0c0-0.2,0-0.4,0-0.6v-0.1h0c0-0.2,0-0.4,0-0.6v0h0l-0.1-0.7v0 h0c0-0.5-0.1-1-0.1-1.5v0h0l-0.1-0.8v-0.1h0c0-0.2,0-0.5,0-0.7v-0.1h0c0-0.3,0-0.5,0-0.8v0h0c0-0.6-0.1-1.3-0.1-1.9v-0.1h0 c0-0.3,0-0.7-0.1-1v-0.1h0c0-0.3,0-0.7,0-1v-0.1h0c0-0.4,0-0.8-0.1-1.2v0h0c0-0.5,0-1-0.1-1.5v-0.2h0c0-0.6,0-1.1,0-1.6v-0.1h0 c0-0.8,0-1.6-0.1-2.4V44h0c0-2.1,0-4,0-5.9h0V38c0-0.8,0-1.6,0.1-2.3h0v-0.1c0-0.5,0-1,0-1.5h0v-0.1c0-0.4,0-0.8,0.1-1.2h0v-0.1 c0-0.4,0-0.7,0.1-1.1h0v0c0-0.3,0-0.6,0.1-0.9h0v-0.1c0-0.3,0-0.6,0.1-0.8h0v0c0-0.8,0.1-1.5,0.2-2.2h0v-0.1c0-0.2,0-0.4,0.1-0.6h0 v0c0-0.4,0.1-0.8,0.1-1.2h0v0c0-0.2,0-0.4,0.1-0.5h0v0c0-0.2,0-0.3,0-0.5h0v-0.1c0-0.2,0-0.3,0.1-0.5h0v0c0.1-0.5,0.1-1,0.2-1.4h0 v0c0-0.2,0-0.3,0.1-0.5h0v0l0.1-0.4h0v0c0-0.1,0-0.3,0.1-0.4h0v0c0.1-0.7,0.2-1.3,0.3-1.9h0v0c0-0.1,0-0.2,0.1-0.3h0v0l0.1-0.4h0v0 c0.1-0.5,0.1-0.9,0.2-1.3h0v0c0.1-0.7,0.2-1.4,0.4-2.1h0v0l0-0.2h0v0c0.1-0.5,0.2-0.9,0.3-1.3h0v0c0.1-0.3,0.1-0.5,0.2-0.7h0v0 c0-0.2,0.1-0.3,0.1-0.5h0v0c0.1-0.3,0.1-0.6,0.2-0.9h0v0l0.1-0.2h0v0l0.1-0.2h0v0c0.1-0.5,0.2-1,0.4-1.4h0v0c0.1-0.5,0.3-1,0.4-1.5 h0v0c0.3-0.8,0.5-1.6,0.7-2.3h0v0c0.1-0.4,0.3-0.7,0.4-1h0v0c0.3-0.8,0.6-1.5,0.9-2h0v0C69.9,0.8,70.4,0,70.4,0 c0.2,0,0.4,0.1,0.7,0.1l0,0h0l0.3,0.1v0h0l0.3,0.1v0h0c0.4,0.1,0.8,0.1,1.2,0.2v0h0c0.4,0.1,0.7,0.1,1.1,0.2v0h0 c1.4,0.3,2.4,0.5,2.4,0.5c0.1,0,0.1,0,0.2,0.1v0h0l0.2,0v0h0.1l0.2,0v0h0l0.1,0v0h0.1c0,0,0.1,0,0.1,0v0h0l0.1,0v0h0l0.1,0v0h0.1 c0.1,0,0.1,0,0.2,0.1l0,0h0c0.2,0.1,0.4,0.1,0.6,0.2v0h0c0.1,0,0.2,0.1,0.3,0.1v0h0l0.1,0v0h0.1L79,2v0h0l0.1,0v0h0l0.1,0v0h0 l0.1,0v0h0c0.1,0.1,0.2,0.1,0.3,0.2v0h0c0.1,0,0.1,0.1,0.2,0.1v0h0l0.1,0v0h0l0.1,0v0h0l0.1,0v0h0l0.1,0v0h0l0.1,0.1v0h0 c0.1,0,0.2,0.1,0.3,0.1v0h0l0.1,0v0h0L81,3v0h0c0.2,0.1,0.4,0.2,0.5,0.3v0h0l0.2,0.1v0h0l0.1,0.1v0h0L82,3.6v0h0l0.1,0.1v0h0 l0.1,0.1v0h0c0.2,0.2,0.4,0.3,0.6,0.5v0h0l0,0v0h0c0.1,0.1,0.1,0.1,0.2,0.2v0h0l0,0v0h0c0.1,0.1,0.2,0.1,0.2,0.2v0h0 c0.1,0.1,0.3,0.2,0.4,0.4v0h0l0.1,0v0h0l0,0v0h0l0,0v0h0l0,0v0h0l0,0v0h0l0,0v0h0c0.2,0.2,0.4,0.4,0.6,0.6v0h0l0,0v0h0 c0.1,0.1,0.3,0.3,0.4,0.4v0h0l0,0v0h0c0.2,0.2,0.3,0.4,0.5,0.6v0h0c0.1,0.1,0.1,0.2,0.2,0.3v0h0c0.1,0.1,0.1,0.1,0.2,0.2v0h0 c0.1,0.1,0.2,0.2,0.3,0.4v0h0l0.1,0.1v0h0c0,0,0.1,0.1,0.1,0.1v0h0l0.1,0.1v0h0c0.1,0.1,0.1,0.2,0.2,0.3v0l0,0 c0.1,0.1,0.1,0.2,0.2,0.3v0h0c0.1,0.1,0.1,0.2,0.2,0.3v0h0c0.1,0.2,0.2,0.3,0.3,0.5v0h0c0.2,0.3,0.3,0.7,0.5,1v0h0l0,0.1v0h0 c0.1,0.3,0.2,0.5,0.3,0.7v0h0c0.3,0.7,0.4,1.1,0.4,1.1c0,0,0,0.1,0.1,0.1v0h0l0.1,0.2v0h0c0.1,0.2,0.1,0.5,0.2,0.7v0h0 c0,0.2,0.1,0.3,0.1,0.5v0h0c0,0.1,0,0.2,0.1,0.3v0h0c0,0.1,0,0.2,0.1,0.3v0h0c0,0.1,0,0.2,0.1,0.3v0h0c0,0.3,0.1,0.6,0.1,1v0.1h0 c0,0.3,0,0.6,0,0.9v0.2h0c0,0.3,0,0.7,0,1h0v0.1c0,1.2-0.1,2.3-0.3,3.2h0v0c-0.1,0.4-0.1,0.7-0.2,1.1h0v0c-0.2,1.2-0.4,1.9-0.4,1.9 c-0.2,0.7-0.4,1.5-0.6,2.2h0v0c0,0.1-0.1,0.2-0.1,0.4h0v0c-0.1,0.2-0.1,0.5-0.2,0.7h0v0l0,0.2h0v0c-0.1,0.4-0.3,0.8-0.4,1.3h0v0 c-0.2,0.4-0.3,0.9-0.5,1.3h0v0c-0.1,0.1-0.1,0.3-0.2,0.4h0v0c-0.3,0.7-0.6,1.4-0.9,2.1h0v0c-0.1,0.2-0.2,0.4-0.3,0.6h0v0l-0.2,0.4 h0v0c-0.5,1.1-1,2.2-1.5,3.3h0v0c-0.2,0.4-0.4,0.7-0.5,1.1v0c-0.7,1.5-1.5,3-2.2,4.4h0v0c-0.2,0.3-0.3,0.6-0.5,0.9h0v0 c-0.4,0.8-0.9,1.6-1.3,2.5h0v0c-0.4,0.7-0.8,1.5-1.2,2.2h0v0l-0.2,0.4h0v0l-0.2,0.4h0v0c-2.2,3.7-4.3,7.3-6.3,10.3h0v0l-0.4,0.6 c-0.2,0.3-0.3,0.5-0.5,0.7h0v0c-1.6,2.5-3,4.5-4,6h0l0,0c-0.4,0.6-0.8,1.2-1.1,1.6l0,0c0,0-0.2,0.4-0.5,0.2c0,0-0.2-0.1-0.3-0.4 l0,0C64.7,68.4,64.7,68.1,64.6,67.9z"/><radialGradient id="SVGID_6_" cx="77.4852" cy="11.6335" r="88.2378" gradientUnits="userSpaceOnUse"><stop offset="0" style="stop-color:#FAB8A0"/><stop offset="0.43" style="stop-color:#EB2227"/><stop offset="1" style="stop-color:#991C1F"/></radialGradient><path class="st5" d="M94.9,92.4L94.9,92.4L94.9,92.4c-0.9-0.1-1.5-0.3-1.5-0.3c-0.2,0-0.3-0.1-0.5-0.2v0h0c-0.1,0-0.1,0-0.2-0.1 l0,0c-0.3-0.1-0.6-0.2-0.9-0.3v0h0c-0.1,0-0.2-0.1-0.4-0.2v0h0c-0.3-0.1-0.6-0.2-0.8-0.4v0h0l-0.1,0v0h0c-0.9-0.4-1.8-0.9-2.7-1.4 v0h0c-0.5-0.3-1.1-0.6-1.6-0.9v0h0c-1.2-0.7-2.5-1.5-3.7-2.2v0h0c-0.2-0.1-0.4-0.2-0.6-0.4v0h0c-0.3-0.2-0.5-0.3-0.7-0.5v0h0 c-1.3-0.8-2.6-1.7-3.7-2.5h0c-0.3-0.2-0.6-0.4-0.9-0.6v0h0c-0.8-0.6-1.5-1.1-2.1-1.5v0h0c-0.3-0.2-0.6-0.5-0.9-0.6v0 c-0.2-0.2-0.1-0.5-0.1-0.5c0.1-0.2,0.4-0.3,0.4-0.3l0,0l37.7,1.3c0,0.1-0.1,0.1-0.1,0.2h0v0c-0.1,0.1-0.1,0.2-0.2,0.3h0v0 c-0.1,0.1-0.1,0.2-0.2,0.3h0v0c-0.2,0.3-0.4,0.6-0.5,0.9l-0.1,0.2h0v0c0,0.1-0.1,0.1-0.1,0.2h0v0c0,0.1-0.1,0.1-0.1,0.2h0v0 l-0.1,0.2h0v0l-0.1,0.2h0v0c-0.1,0.2-0.2,0.4-0.4,0.5h0v0c-0.3,0.4-0.5,0.7-0.8,1.1h0v0c-0.3,0.4-0.6,0.8-1,1.2h0v0 c-0.1,0.2-0.3,0.3-0.4,0.5h0v0c-0.7,0.7-1.3,1.4-2,1.9h0v0c-0.1,0.1-0.3,0.2-0.4,0.3h0v0c-0.1,0.1-0.2,0.1-0.3,0.2h0v0 c-0.3,0.2-0.6,0.4-0.9,0.6h0v0c-0.3,0.2-0.5,0.4-0.8,0.5h0v0c-0.2,0.1-0.4,0.2-0.5,0.3h0v0c-0.2,0.1-0.3,0.2-0.5,0.3h0v0 c-0.2,0.1-0.4,0.2-0.6,0.3h0v0l-0.1,0.1c-0.7,0.3-1.3,0.6-2,0.7h0v0c-0.1,0-0.3,0.1-0.4,0.1h0v0C99.1,92,99,92,99,92h0v0 c-0.1,0-0.1,0-0.2,0.1h0l0,0C97.2,92.5,95.9,92.5,94.9,92.4z"/><radialGradient id="SVGID_7_" cx="77.508" cy="11.4541" r="88.4572" gradientUnits="userSpaceOnUse"><stop offset="0" style="stop-color:#FAB8A0"/><stop offset="0.43" style="stop-color:#EB2227"/><stop offset="1" style="stop-color:#991C1F"/></radialGradient><path class="st6" d="M73.2,76.7L73.2,76.7L73.2,76.7c-0.2-0.1-0.3-0.3-0.3-0.3c0,0,0-0.1,0-0.1v0h0c0,0,0,0,0-0.1h0v0 c0-0.2,0.2-0.4,0.2-0.4v0l0,0l0.4-0.2h0v0l0.2-0.1h0v0l0.2-0.1h0v0l0.2-0.1h0v0l0.2-0.1h0v0l0.2-0.1h0v0l0.2-0.1h0v0 c1-0.6,2-1.3,3.1-2h0v0c0.5-0.3,1.1-0.7,1.6-1h0v0c0.6-0.4,1.1-0.7,1.7-1.1h0v0c0.6-0.4,1.2-0.7,1.8-1.1h0v0c0.8-0.5,1.6-1,2.5-1.5 h0v0c2.6-1.6,5.3-3.2,8-4.8h0v0c1.2-0.7,2.5-1.4,3.7-2.1h0v0c2.3-1.3,4.6-2.7,6.9-3.9l0,0c4.3-2.4,8.2-4.6,11.2-6.3l0,0 c4.1-2.3,6.8-3.7,6.8-3.7c0,0.1,0,0.1,0.1,0.2v0h0c0,0.1,0.1,0.2,0.1,0.3v0h0l0,0.1v0h0l0,0.2v0h0l0,0.2v0h0l0.1,0.2v0h0 c0,0.1,0.1,0.3,0.1,0.4v0h0c0,0.1,0,0.1,0,0.2v0h0c0,0.1,0,0.2,0.1,0.2v0h0c0,0.1,0,0.2,0,0.2v0h0c0,0.1,0,0.2,0,0.2v0h0 c0.1,0.3,0.1,0.6,0.2,1v0.1h0c0,0.1,0,0.2,0,0.3v0.1h0c0,0.4,0.1,0.7,0.1,1.1V53h0c0.1,1,0,1.9,0,2.7h0v0.1c0,0.4-0.1,0.8-0.1,1.2 h0v0c0,0.1,0,0.3-0.1,0.4h0v0c0,0.1,0,0.2-0.1,0.4h0v0c0,0.1,0,0.2,0,0.3h0v0c0,0.1,0,0.2-0.1,0.3h0v0c0,0.3-0.1,0.5-0.2,0.8h0v0 c0,0.1,0,0.2-0.1,0.2l0,0c-0.1,0.3-0.1,0.6-0.2,0.9h0v0c-0.2,0.8-0.4,1.5-0.6,2h0v0c-0.3,0.7-0.5,1.1-0.5,1.1 c-0.1,0.2-0.1,0.3-0.2,0.5h0v0l-0.1,0.1h0v0l-0.1,0.1h0v0l-0.1,0.1h0v0l-0.1,0.1h0v0l-0.1,0.1h0v0c-0.1,0.2-0.2,0.5-0.4,0.7h0v0 c0,0.1-0.1,0.2-0.1,0.3h0v0l-0.1,0.1h0v0l-0.1,0.2h0v0l0,0.1h0v0l-0.1,0.2h0v0l-0.1,0.1h0v0l-0.1,0.2h0v0c-0.2,0.3-0.3,0.5-0.5,0.8 h0v0l-0.1,0.1h0v0l-0.1,0.1h0v0l0,0.1h0v0c0,0-0.1,0.1-0.1,0.1h0v0c-0.1,0.1-0.2,0.3-0.3,0.4h0v0c-0.1,0.1-0.1,0.2-0.2,0.3h0v0 c-0.1,0.1-0.1,0.2-0.2,0.3h0v0l0,0h0v0c-0.1,0.1-0.1,0.2-0.2,0.3h0v0c-0.1,0.1-0.2,0.3-0.4,0.4h0v0l0,0h0v0 c-0.5,0.6-1.1,1.1-1.6,1.6h0v0l-0.1,0h0v0c-0.1,0.1-0.3,0.3-0.4,0.4h0v0c-0.1,0.1-0.2,0.2-0.3,0.3h0v0c-0.2,0.1-0.4,0.3-0.5,0.4h0 v0c-0.1,0.1-0.1,0.1-0.2,0.2h0v0c-0.1,0.1-0.1,0.1-0.2,0.2h0v0c-0.1,0.1-0.1,0.1-0.2,0.2l0,0l0,0c-0.4,0.3-0.9,0.6-1.3,0.9h0v0 c-0.1,0.1-0.2,0.1-0.3,0.2h0v0c-0.3,0.2-0.5,0.3-0.7,0.4h0v0c-0.5,0.3-0.9,0.5-1.3,0.6h0v0c-0.4,0.2-0.7,0.3-0.9,0.4h0v0 c-0.1,0-0.2,0.1-0.2,0.1c-0.1,0-0.3,0.1-0.4,0.1h0v0l-0.1,0.1h0v0l-0.1,0h0v0c-0.3,0.1-0.5,0.2-0.8,0.3h0v0 c-0.2,0.1-0.4,0.1-0.5,0.2h0v0c-0.2,0.1-0.4,0.1-0.6,0.2h0v0l-0.2,0.1h0v0l-0.2,0.1h0v0c-0.6,0.1-1.1,0.2-1.6,0.3h0v0 c-1.2,0.2-1.9,0.2-1.9,0.2C101.7,76.8,79.2,76.8,73.2,76.7C73.3,76.7,73.2,76.7,73.2,76.7z"/><radialGradient id="SVGID_8_" cx="77.4866" cy="11.3265" r="88.5075" gradientUnits="userSpaceOnUse"><stop offset="0" style="stop-color:#FAB8A0"/><stop offset="0.43" style="stop-color:#EB2227"/><stop offset="1" style="stop-color:#991C1F"/></radialGradient><path class="st7" d="M70,72L70,72L70,72c0,0,0-0.1-0.1-0.1v0h0c-0.1-0.2,0-0.4,0-0.4h0l0,0c0.2-0.4,0.4-0.8,0.6-1.2h0v0l0-0.1h0v0 c0.1-0.3,0.2-0.5,0.4-0.8h0v0c0.4-0.8,0.7-1.5,1.1-2.2h0v0l0.1-0.1h0v0l0-0.1h0v0c0.8-1.7,1.7-3.5,2.6-5.1h0v0l0.1-0.1h0v0l0.1-0.1 h0v0c0.4-0.8,0.8-1.6,1.2-2.4h0v0c0.1-0.3,0.3-0.5,0.4-0.8h0v0c0.4-0.7,0.7-1.4,1.1-2.1h0v0l0.3-0.6l0,0v0c0.4-0.8,0.9-1.6,1.3-2.4 h0v0c0.2-0.3,0.3-0.6,0.5-0.9h0v0c0.2-0.4,0.4-0.8,0.6-1.1h0v0l0.2-0.4h0v0l0.2-0.4h0v0c0.2-0.3,0.4-0.7,0.6-1 c0.2-0.3,0.4-0.6,0.5-0.9h0v0c0.2-0.3,0.4-0.6,0.5-0.9h0v0c0.8-1.3,1.6-2.6,2.4-3.9h0v0l0.4-0.7h0l0,0c0.9-1.5,1.8-2.9,2.7-4.3h0v0 c0.4-0.6,0.8-1.2,1.2-1.8h0v0c0.4-0.6,0.8-1.2,1.1-1.7h0v0l0.1-0.2h0v0l0.1-0.2h0v0l0.1-0.2h0v0c0.3-0.4,0.5-0.8,0.7-1.1h0v0 l0.1-0.2c0.6-0.9,1.2-1.8,1.8-2.7h0v0c0.3-0.5,0.6-0.9,1-1.4h0v0c0.5-0.7,0.9-1.3,1.4-2h0v0c1.4-1.9,2.6-3.6,3.7-5.1h0v0 c2.9-3.9,4.7-6,4.7-6s2.6,2.3,5.1,6v0h0c0.4,0.6,0.9,1.3,1.3,2v0h0c0.3,0.6,0.7,1.1,1,1.7v0h0l0.1,0.1v0h0c0.1,0.2,0.2,0.4,0.3,0.6 v0h0l0.1,0.1v0h0c0.4,0.8,0.7,1.6,1,2.4v0h0c0.1,0.4,0.3,0.7,0.4,1.1v0h0c0.1,0.2,0.1,0.4,0.2,0.5l0,0c0.1,0.4,0.2,0.9,0.3,1.3v0h0 c0.1,0.3,0.1,0.6,0.2,0.9v0h0c0.2,1.1,0.2,2.3,0.2,3.5c0,0,0,0.1,0,0.1h0v0c0,0.2,0,0.4,0,0.5h0v0.2c0,0.3-0.1,0.5-0.1,0.8h0v0 c0,0.1,0,0.2,0,0.3h0v0c0,0.1,0,0.2,0,0.2h0v0.1c0,0.2-0.1,0.5-0.2,0.7h0v0c0,0.1,0,0.1,0,0.2h0v0l0,0.2h0v0c0,0.1-0.1,0.2-0.1,0.4 h0v0c-0.1,0.2-0.1,0.4-0.2,0.6h0v0l0,0.1h0v0l-0.1,0.1h0v0c-0.1,0.3-0.2,0.5-0.3,0.8h0v0c-0.1,0.2-0.1,0.3-0.2,0.5h0v0 c-0.1,0.3-0.2,0.5-0.4,0.7h0v0l0,0.1h0v0l-0.1,0.1h0v0c-0.1,0.2-0.2,0.3-0.3,0.5h0v0c-0.1,0.1-0.1,0.2-0.2,0.3h0v0 c-0.1,0.1-0.1,0.2-0.2,0.3h0v0c-0.5,0.8-1,1.5-1.5,2.1h0v0c-0.2,0.3-0.4,0.5-0.6,0.7h0v0c-0.9,0.9-1.5,1.5-1.5,1.5 c-0.1,0.1-0.3,0.2-0.4,0.4h0v0l-0.1,0.1h0v0c-0.4,0.3-0.7,0.7-1.1,1h0v0c-0.2,0.2-0.5,0.4-0.7,0.6h0v0c-1.1,1-2.4,1.9-3.7,2.9h0v0 c-0.8,0.6-1.6,1.1-2.4,1.7h0v0c-0.3,0.2-0.7,0.5-1,0.7h0v0c-0.5,0.3-1,0.6-1.4,1h0v0l-0.2,0.1h0v0c-0.4,0.2-0.7,0.5-1.1,0.7h0v0 c-1,0.6-1.9,1.2-2.9,1.8h0v0c-0.2,0.1-0.5,0.3-0.7,0.4h0v0c-1.6,1-3.3,2-4.9,2.9h0v0c-1.6,0.9-3.1,1.8-4.6,2.6h0l0,0 c-0.4,0.2-0.7,0.4-1.1,0.6h0v0c-0.9,0.5-1.7,0.9-2.6,1.4h0v0c-3.8,2-6.8,3.6-8.4,4.4C70.3,72.3,70.1,72.1,70,72 C70,72.1,70,72,70,72z"/><polygon class="st8" points="4.6,110.9 14.6,110.9 14.6,102.9 19.1,102.9 19.1,122.7 14.6,122.7 14.6,114.4 4.6,114.4 4.6,122.7 0.1,122.7 0.1,102.9 4.6,102.9"/><path class="st8" d="M27.2,114.8c0,3.5,1.1,4.9,4.8,4.9c3.7,0,4.8-1.4,4.8-4.9v-11.8h4.5v11.9c0,2.5-0.3,4.3-1.3,5.3 c-1.8,1.9-4.3,2.7-8,2.7c-3.7,0-6.3-0.8-8.1-2.7c-1-1.1-1.2-2.8-1.2-5.3v-11.9h4.5V114.8z"/><path class="st8" d="M50.3,114.5h6.4l-3.2-7.6L50.3,114.5L50.3,114.5z M56,102.9l9.1,19.7h-5l-2-4.7h-9.3l-1.9,4.7h-4.8l9-19.7H56z"/><polygon class="st8" points="67.2,102.9 72.1,118.1 76.3,102.9 81.6,102.9 86.4,118.1 91,102.9 95.6,102.9 89,122.7 83.5,122.7 78.9,107.9 74.9,122.7 69.5,122.7 62.3,102.9"/><path class="st8" d="M101.6,111h12.4v3.4h-12.5c0,3.5,1.6,4.8,5.1,4.8h7.4v3.4h-7.6c-2.6,0-4.6-0.2-6.7-1.7 c-2.2-1.6-3.3-4.2-3.3-7.8c0-7,3.2-10.2,10.1-10.2h7.5v3.4h-7.4C103.4,106.4,101.8,107.9,101.6,111z"/><rect x="118" y="102.9" class="st8" width="4.7" height="19.7"/></g></svg>